HIERARCHY
ROOT Hips
{
	OFFSET 0.00000 0.00000 0.00000
	CHANNELS 6 Xposition Yposition Zposition Zrotation Yrotation Xrotation 
	JOINT LHipJoint
	{
		OFFSET 0 0 0
		CHANNELS 3 Zrotation Yrotation Xrotation
		JOINT LeftUpLeg
		{
			OFFSET 1.55020 -1.87941 0.79896
			CHANNELS 3 Zrotation Yrotation Xrotation
			JOINT LeftLeg
			{
				OFFSET 2.65269 -7.28822 0.00000
				CHANNELS 3 Zrotation Yrotation Xrotation
				JOINT LeftFoot
				{
					OFFSET 2.61200 -7.17641 0.00000
					CHANNELS 3 Zrotation Yrotation Xrotation
					JOINT LeftToeBase
					{
						OFFSET 0.09338 -0.25656 1.92461
						CHANNELS 3 Zrotation Yrotation Xrotation
						End Site
						{
							OFFSET 0.00000 -0.00000 0.98480
						}
					}
				}
			}
		}
	}
	JOINT RHipJoint
	{
		OFFSET 0 0 0
		CHANNELS 3 Zrotation Yrotation Xrotation
		JOINT RightUpLeg
		{
			OFFSET -1.56866 -1.87941 0.79895
			CHANNELS 3 Zrotation Yrotation Xrotation
			JOINT RightLeg
			{
				OFFSET -2.60199 -7.14892 0.00000
				CHANNELS 3 Zrotation Yrotation Xrotation
				JOINT RightFoot
				{
					OFFSET -2.62841 -7.22151 0.00000
					CHANNELS 3 Zrotation Yrotation Xrotation
					JOINT RightToeBase
					{
						OFFSET -0.19532 -0.53663 1.93132
						CHANNELS 3 Zrotation Yrotation Xrotation
						End Site
						{
							OFFSET -0.00000 -0.00000 1.00896
						}
					}
				}
			}
		}
	}
	JOINT LowerBack
	{
		OFFSET 0 0 0
		CHANNELS 3 Zrotation Yrotation Xrotation
		JOINT Spine
		{
			OFFSET 0.06381 2.07806 -0.22112
			CHANNELS 3 Zrotation Yrotation Xrotation
			JOINT Spine1
			{
				OFFSET -0.02881 2.08890 0.01825
				CHANNELS 3 Zrotation Yrotation Xrotation
				JOINT Neck
				{
					OFFSET 0 0 0
					CHANNELS 3 Zrotation Yrotation Xrotation
					JOINT Neck1
					{
						OFFSET 0.02418 1.74325 -0.02023
						CHANNELS 3 Zrotation Yrotation Xrotation
						JOINT Head
						{
							OFFSET -0.01704 1.71677 0.04090
							CHANNELS 3 Zrotation Yrotation Xrotation
							End Site
							{
								OFFSET -0.00946 1.78238 0.01684
							}
						}
					}
				}
				JOINT LeftShoulder
				{
					OFFSET 0 0 0
					CHANNELS 3 Zrotation Yrotation Xrotation
					JOINT LeftArm
					{
						OFFSET 3.39783 1.34157 0.16610
						CHANNELS 3 Zrotation Yrotation Xrotation
						JOINT LeftForeArm
						{
							OFFSET 5.15218 -0.00000 0.00000
							CHANNELS 3 Zrotation Yrotation Xrotation
							JOINT LeftHand
							{
								OFFSET 3.49459 -0.00000 0.00000
								CHANNELS 3 Zrotation Yrotation Xrotation
								JOINT LeftFingerBase
								{
									OFFSET 0 0 0
									CHANNELS 3 Zrotation Yrotation Xrotation
									JOINT LeftHandIndex1
									{
										OFFSET 0.51247 -0.00000 0.00000
										CHANNELS 3 Zrotation Yrotation Xrotation
										End Site
										{
											OFFSET 0.41316 -0.00000 0.00000
										}
									}
								}
								JOINT LThumb
								{
									OFFSET 0 0 0
									CHANNELS 3 Zrotation Yrotation Xrotation
									End Site
									{
										OFFSET 0.41947 -0.00000 0.41947
									}
								}
							}
						}
					}
				}
				JOINT RightShoulder
				{
					OFFSET 0 0 0
					CHANNELS 3 Zrotation Yrotation Xrotation
					JOINT RightArm
					{
						OFFSET -3.26224 1.05509 0.01188
						CHANNELS 3 Zrotation Yrotation Xrotation
						JOINT RightForeArm
						{
							OFFSET -5.44344 -0.00000 0.00000
							CHANNELS 3 Zrotation Yrotation Xrotation
							JOINT RightHand
							{
								OFFSET -3.58403 -0.00000 0.00000
								CHANNELS 3 Zrotation Yrotation Xrotation
								JOINT RightFingerBase
								{
									OFFSET 0 0 0
									CHANNELS 3 Zrotation Yrotation Xrotation
									JOINT RightHandIndex1
									{
										OFFSET -0.34249 -0.00000 0.00000
										CHANNELS 3 Zrotation Yrotation Xrotation
										End Site
										{
											OFFSET -0.27612 -0.00000 0.00000
										}
									}
								}
								JOINT RThumb
								{
									OFFSET 0 0 0
									CHANNELS 3 Zrotation Yrotation Xrotation
									End Site
									{
										OFFSET -0.28034 -0.00000 0.28034
									}
								}
							}
						}
					}
				}
			}
		}
	}
}
MOTION
Frames: 14
Frame Time: .0083333
-14.1298 16.4849 2.2353 -56.6027 -101.5240 59.5709 0.0000 0.0000 0.0000 -28.7502 -4.6716 -27.4400 8.1426 16.2231 53.0746 -1.2713 -25.0341 -7.6584 0.1196 -2.2295 -6.1402 0.0000 0.0000 0.0000 -5.4866 17.6179 -28.4056 -9.6644 -17.2168 58.3607 -1.8452 -6.0883 -28.4447 -1.0735 6.5863 -18.4955 6.4224 0.1745 17.3465 -1.5122 0.9670 4.9168 -5.4564 0.3446 -4.2781 -3.3615 -4.7293 4.9993 -1.4251 -6.5372 7.1568 0.1183 -3.4246 1.4462 -0.0000 -0.0000 0.0000 -82.3750 22.5524 3.9464 37.0328 -46.2103 -16.2637 -0.0000 -0.0000 6.9167 26.9390 2.6240 1.3328 -7.1250 0.0000 -0.0000 0.2794 32.9226 -0.0827 -0.0000 -0.0000 0.0000 69.3161 1.7577 27.8415 -22.7218 33.7832 -6.9830 0.0000 0.0000 31.3970 -36.9307 -30.5580 20.9145 7.1250 -0.0000 -0.0000 3.4233 23.6653 178.2356
-14.1957 16.4787 2.2041 -57.6153 -101.4300 59.4849 0.0000 0.0000 0.0000 -28.8025 -4.1977 -25.9480 8.1108 16.2002 52.9609 -1.3577 -25.2708 -7.1257 0.0352 -1.2104 -3.3279 0.0000 0.0000 0.0000 -4.9003 17.5706 -26.8764 -9.7134 -17.2455 58.5261 -1.8782 -6.3641 -28.8196 -1.1537 6.8197 -19.1822 6.1657 -0.1159 17.1608 -1.6381 0.5132 5.0510 -5.3475 0.1290 -4.1020 -4.0843 -5.7921 6.2029 -1.0279 -8.0546 5.3590 0.4275 -4.1507 0.7530 -0.0000 0.0000 0.0000 -82.7074 22.9269 3.4038 35.8712 -45.4243 -15.4307 -0.0000 -0.0000 6.7789 26.8865 2.7444 1.3907 -7.1250 0.0000 -0.0000 0.2348 33.0560 -0.0687 -0.0000 0.0000 0.0000 70.1071 0.7395 27.8551 -22.5470 33.5898 -6.8861 0.0000 0.0000 31.1962 -36.8959 -30.6451 20.9394 7.1250 -0.0000 -0.0000 3.3772 23.5802 178.2529
-14.2598 16.4662 2.1636 -59.2375 -101.4710 59.9546 0.0000 0.0000 0.0000 -29.0294 -3.8157 -24.4027 8.0829 16.1799 52.8608 -1.3532 -25.3293 -7.2548 0.0226 -0.9704 -2.6673 0.0000 0.0000 0.0000 -4.5020 17.2811 -25.3608 -9.7659 -17.2761 58.7029 -1.9195 -6.4579 -29.1432 -1.2576 7.1092 -20.0392 5.4179 -0.5257 17.1251 -1.7064 -0.1673 5.1599 -4.8525 -0.2054 -4.0645 -5.1854 -6.7348 7.5544 -0.5628 -9.4689 3.4469 0.8558 -4.8265 0.0444 -0.0000 0.0000 0.0000 -83.4701 23.1901 2.3543 34.4436 -44.4107 -14.4226 -0.0000 -0.0000 6.6107 27.0558 2.8838 1.4720 -7.1250 0.0000 -0.0000 0.3703 33.2170 -0.1069 -0.0000 0.0000 0.0000 70.6553 -0.1109 28.4249 -22.4004 33.4266 -6.8051 0.0000 0.0000 30.9902 -36.8721 -31.0253 21.1362 7.1250 -0.0000 -0.0000 3.2515 23.1697 178.2874
-14.3218 16.4534 2.1152 -60.9122 -101.4490 60.4368 0.0000 0.0000 0.0000 -29.1943 -3.5107 -22.8094 8.0630 16.1654 52.7894 -1.2646 -25.2191 -7.9738 0.0464 -1.3908 -3.8248 0.0000 0.0000 0.0000 -4.0202 16.8081 -23.8034 -9.8149 -17.3044 58.8677 -1.9879 -6.3415 -29.5195 -1.2824 7.1761 -20.2382 4.6309 -0.8791 16.8547 -1.7599 -0.8070 5.5430 -4.3282 -0.5100 -3.5880 -6.1656 -7.7562 8.8992 0.0218 -11.0047 1.1950 1.3550 -5.5450 -0.7620 0.0000 0.0000 0.0000 -84.2038 22.9848 1.4280 32.9907 -43.3229 -13.4157 -0.0000 -0.0000 6.3676 27.1533 3.0898 1.5836 -7.1250 0.0000 -0.0000 0.4466 33.4511 -0.1264 0.0000 0.0000 0.0000 71.1642 -0.6180 28.8532 -22.2164 33.2208 -6.7040 0.0000 0.0000 30.7068 -37.0078 -31.2347 21.3486 7.1250 -0.0000 -0.0000 3.2686 22.8948 178.2578
-14.3779 16.4394 2.0636 -62.7791 -101.2060 61.1380 0.0000 0.0000 0.0000 -29.1806 -3.4474 -21.2032 8.0657 16.1674 52.7991 -1.1716 -25.0154 -8.5951 0.0481 -1.4150 -3.8915 0.0000 0.0000 0.0000 -3.3581 16.0179 -22.3181 -9.8598 -17.3303 59.0188 -2.0569 -6.1631 -29.8602 -1.2827 7.1770 -20.2409 4.0459 -1.2930 16.4804 -1.7861 -1.4968 6.0427 -3.8923 -0.8422 -2.9242 -7.0076 -8.8259 9.7863 0.6548 -12.5771 -0.8111 1.8505 -6.2837 -1.4151 0.0000 0.0000 0.0000 -85.0409 22.6156 0.4743 31.6769 -42.2881 -12.5229 -0.0000 -0.0000 6.1555 26.9363 3.3914 1.7217 -7.1250 0.0000 -0.0000 0.2632 33.7826 -0.0724 0.0000 0.0000 0.0000 71.6024 -0.9019 29.4037 -22.0254 33.0057 -6.5997 0.0000 0.0000 30.2124 -37.0348 -31.2084 21.3529 7.1250 -0.0000 -0.0000 3.2921 22.9144 178.2467
-14.4269 16.4234 2.0043 -64.1296 -100.8570 61.3664 0.0000 0.0000 0.0000 -28.9804 -3.3646 -19.7035 8.0857 16.1819 52.8707 -1.0651 -24.7596 -9.2687 0.0490 -1.4282 -3.9279 0.0000 0.0000 0.0000 -2.5551 15.1224 -21.0033 -9.9107 -17.3593 59.1895 -2.1018 -6.0267 -30.0688 -1.3168 7.2680 -20.5119 3.5177 -1.6941 16.3635 -1.7900 -2.1341 6.3497 -3.4802 -1.1610 -2.5846 -7.8312 -9.8410 10.5156 1.3410 -14.0694 -2.3233 2.3484 -6.9966 -1.8712 0.0000 0.0000 0.0000 -85.7873 22.5178 -0.2672 30.2944 -41.1444 -11.6028 -0.0000 -0.0000 6.1129 26.9284 3.4962 1.7742 -7.1250 0.0000 -0.0000 0.2543 33.8998 -0.0693 0.0000 0.0000 0.0000 72.0811 -1.4208 30.0668 -21.8288 32.7830 -6.4929 0.0000 0.0000 29.7752 -36.8641 -31.1729 21.2130 7.1250 -0.0000 -0.0000 3.2031 23.0097 178.3012
-14.4677 16.4150 1.9326 -62.6283 -100.1040 58.8684 0.0000 0.0000 0.0000 -28.0146 -3.1467 -18.4591 8.1284 16.2129 53.0239 -0.9242 -24.4746 -10.2083 0.0898 -1.9331 -5.3208 0.0000 0.0000 0.0000 -1.0416 14.4607 -19.9249 -9.9637 -17.3894 59.3668 -2.1354 -5.8869 -30.2046 -1.3215 7.2806 -20.5493 3.3347 -2.0064 16.3946 -1.6091 -2.5821 6.5491 -3.1033 -1.3887 -2.4138 -8.4749 -10.7789 11.2143 1.8852 -15.4483 -3.5872 2.7703 -7.6561 -2.2554 0.0000 -0.0000 0.0000 -86.4258 22.4693 -0.7375 28.8010 -39.8433 -10.6330 -0.0000 -0.0000 6.2968 26.8675 3.5921 1.8180 -7.1250 0.0000 -0.0000 0.2022 34.0051 -0.0545 0.0000 -0.0000 0.0000 72.5655 -1.9914 30.6771 -21.5963 32.5178 -6.3675 0.0000 0.0000 29.5636 -36.6366 -30.9928 20.9534 7.1250 -0.0000 -0.0000 3.1227 23.2820 178.3635
-14.5047 16.4071 1.8621 -62.7490 -99.4766 58.1332 0.0000 0.0000 0.0000 -27.3695 -3.3306 -17.2286 8.1643 16.2388 53.1522 -0.8140 -24.2309 -10.9056 0.0932 -1.9688 -5.4193 0.0000 0.0000 0.0000 -0.0015 13.2752 -19.2026 -10.0390 -17.4317 59.6188 -2.1715 -5.4012 -30.1760 -1.3175 7.2699 -20.5175 2.9572 -2.3738 16.2869 -1.5083 -3.1407 6.7917 -2.6885 -1.6728 -2.1218 -9.0170 -11.6457 11.4997 2.4589 -16.6796 -4.5404 3.1365 -8.2550 -2.4621 -0.0000 -0.0000 0.0000 -87.1020 22.2248 -1.1892 27.3995 -38.5575 -9.7471 -0.0000 -0.0000 6.6876 26.1842 3.6905 1.8128 -7.1250 0.0000 -0.0000 -0.3622 34.0908 0.0969 -0.0000 -0.0000 0.0000 73.0123 -2.3618 31.2431 -21.3957 32.2873 -6.2600 0.0000 0.0000 29.5648 -36.4385 -30.7622 20.6877 7.1250 -0.0000 -0.0000 3.0732 23.6000 178.4120
-14.5466 16.4007 1.7878 -62.3660 -98.8621 56.8511 0.0000 0.0000 0.0000 -26.7000 -3.4595 -15.9144 8.1970 16.2623 53.2692 -0.7208 -24.0516 -11.5160 0.0701 -1.7080 -4.6994 0.0000 0.0000 0.0000 1.0462 11.8669 -18.5387 -10.1194 -17.4764 59.8866 -2.1690 -4.9802 -29.9473 -1.3799 7.4334 -21.0057 2.5932 -2.7216 16.2066 -1.4517 -3.6757 7.0730 -2.3375 -1.9481 -1.7952 -9.6311 -12.3360 11.6635 3.2903 -17.6489 -5.2615 3.5642 -8.7414 -2.5423 0.0000 -0.0000 0.0000 -87.6991 22.0005 -1.5795 26.1396 -37.3462 -8.9722 -0.0000 -0.0000 7.3417 25.3529 3.5869 1.6980 -7.1250 0.0000 -0.0000 -1.0417 33.9463 0.2825 0.0000 -0.0000 0.0000 73.5261 -2.7590 31.8233 -21.2822 32.1562 -6.1994 0.0000 0.0000 29.6172 -36.3279 -30.6806 20.5661 7.1250 -0.0000 -0.0000 3.0306 23.7247 178.4428
-14.5846 16.3930 1.7091 -61.9928 -98.5906 55.6110 0.0000 0.0000 0.0000 -26.3510 -3.4410 -14.6813 8.2168 16.2764 53.3398 -0.5973 -23.7683 -12.2673 0.0608 -1.5914 -4.3778 0.0000 0.0000 0.0000 1.7037 10.2848 -18.1260 -10.2108 -17.5267 60.1908 -2.1474 -4.5923 -29.6212 -1.4790 7.6842 -21.7590 1.9488 -2.9503 16.2611 -1.5262 -4.0898 7.2410 -1.9818 -2.1696 -1.6371 -9.9411 -12.8816 11.9755 3.8685 -18.4120 -5.8578 3.8704 -9.1232 -2.6619 0.0000 0.0000 0.0000 -88.0674 21.9038 -1.6619 24.8871 -36.0883 -8.2233 -0.0000 -0.0000 8.1048 24.6648 3.4807 1.5970 -7.1250 0.0000 -0.0000 -1.6016 33.8057 0.4399 0.0000 0.0000 0.0000 74.1623 -3.3807 32.2606 -21.2002 32.0613 -6.1559 0.0000 0.0000 29.8676 -36.2615 -30.6317 20.4933 7.1250 -0.0000 -0.0000 3.0054 23.7999 178.4610
-14.6151 16.3955 1.6245 -58.3019 -98.1525 51.1788 0.0000 0.0000 0.0000 -25.4883 -3.3006 -13.6449 8.2189 16.2779 53.3473 -0.4770 -23.4465 -12.9498 0.0548 -1.5109 -4.1559 0.0000 0.0000 0.0000 2.8654 9.0184 -17.9063 -10.3119 -17.5816 60.5259 -2.1364 -4.2253 -29.3750 -1.3577 7.3757 -20.8334 1.6460 -3.0607 16.4086 -1.4984 -4.2880 7.3204 -1.7422 -2.2791 -1.6184 -9.8370 -13.3652 12.2799 4.3803 -19.0275 -6.7177 3.6676 -9.4528 -2.6157 -0.0000 0.0000 0.0000 -88.2570 21.7529 -1.5353 23.5642 -34.7000 -7.4570 -0.0000 -0.0000 9.0597 24.0296 3.2898 1.4656 -7.1250 0.0000 -0.0000 -2.1126 33.5755 0.5921 -0.0000 0.0000 0.0000 74.8500 -4.0961 32.5115 -21.1373 31.9883 -6.1225 0.0000 0.0000 30.2515 -36.1499 -30.7076 20.4585 7.1250 -0.0000 -0.0000 2.9178 23.7529 178.5028
-14.6408 16.4110 1.5292 -47.8972 -97.4347 40.0915 0.0000 0.0000 0.0000 -23.6312 -2.9943 -12.6859 8.2101 16.2716 53.3159 -0.3591 -23.1320 -13.6158 0.0707 -1.7151 -4.7189 0.0000 0.0000 0.0000 5.0967 8.3664 -17.6379 -10.4148 -17.6366 60.8659 -2.0896 -4.2182 -29.0725 -1.0819 6.6112 -18.5685 1.9884 -3.0677 16.6318 -1.2339 -4.2479 7.4061 -1.6555 -2.2618 -1.6437 -9.4875 -13.7554 12.4335 4.4032 -19.5097 -7.1516 3.6740 -9.6880 -2.7673 -0.0000 0.0000 0.0000 -88.3709 21.5315 -1.2590 22.3642 -33.3862 -6.7852 -0.0000 -0.0000 10.0511 23.4554 3.0119 1.3060 -7.1250 0.0000 -0.0000 -2.5672 33.2547 0.7397 -0.0000 0.0000 0.0000 75.5067 -4.7438 32.8409 -21.0720 31.9123 -6.0879 0.0000 0.0000 30.1818 -35.8665 -31.0464 20.4489 7.1250 -0.0000 -0.0000 2.6535 23.4723 178.6215
-14.6581 16.4187 1.4527 -45.7355 -97.3675 37.3920 0.0000 0.0000 0.0000 -23.3419 -3.3248 -11.6253 8.1615 16.2368 53.1423 -0.1656 -22.4711 -14.5902 0.1207 -2.2400 -6.1695 0.0000 0.0000 0.0000 5.6013 7.0343 -17.7847 -10.5555 -17.7106 61.3295 -2.0064 -3.9165 -28.3895 -0.9436 6.1869 -17.3277 1.5464 -3.1458 16.7397 -1.3471 -4.4247 7.4250 -1.4886 -2.3597 -1.6673 -9.1683 -14.0373 12.3135 4.4428 -19.8206 -7.2725 3.6475 -9.8473 -2.7894 -0.0000 0.0000 0.0000 -88.4167 21.2155 -0.7962 21.3608 -32.2471 -6.2413 -0.0000 -0.0000 10.6123 22.9849 2.8131 1.1926 -7.1250 0.0000 -0.0000 -2.9394 33.0251 0.8635 -0.0000 0.0000 0.0000 76.1740 -5.3103 33.0818 -20.9549 31.7757 -6.0262 0.0000 0.0000 30.1536 -35.9399 -30.9524 20.4482 7.1250 -0.0000 -0.0000 2.7238 23.5517 178.5900
-14.6763 16.4258 1.3706 -41.9356 -97.4954 33.0677 0.0000 0.0000 0.0000 -23.0120 -3.6045 -10.5113 8.0946 16.1884 52.9029 0.0943 -21.5864 -15.9198 0.2411 -3.1597 -8.7237 0.0000 0.0000 0.0000 6.2114 6.0966 -17.9237 -10.7062 -17.7883 61.8236 -1.9235 -3.6288 -27.7032 -0.8813 5.9846 -16.7398 1.1168 -3.0762 16.8113 -1.4229 -4.4115 7.5076 -1.3291 -2.3651 -1.5935 -8.9066 -14.2742 12.0274 4.6534 -20.0498 -7.3177 3.6547 -9.9765 -2.7449 0.0000 -0.0000 0.0000 -88.4198 20.6954 -0.3184 20.4679 -31.2019 -5.7718 -0.0000 -0.0000 11.0361 22.6928 2.8248 1.1806 -7.1250 0.0000 -0.0000 -3.1772 33.0295 0.9332 0.0000 -0.0000 0.0000 76.8784 -5.7189 32.9893 -21.1004 31.9454 -6.1030 0.0000 0.0000 29.1642 -35.6302 -30.9265 20.2214 7.1250 -0.0000 -0.0000 2.5474 23.6787 178.6889
